first trial
nRows=13
nColumns=38

# SIMM Motion File Header:
name Sujet_02_velo_60.mvnx
datacolumns 38
datarows 13
otherdata 1
range 10.4160 10.6160
endheader
time pelvis_tilt  pelvis_list  pelvis_rotation  pelvis_tx  pelvis_ty  pelvis_tz  hip_flexion_r  hip_adduction_r  hip_rotation_r  knee_angle_r  ankle_angle_r  subtalar_angle_r  mtp_angle_r  hip_flexion_l  hip_adduction_l  hip_rotation_l  knee_angle_l  ankle_angle_l  subtalar_angle_l  mtp_angle_l  lumbar_extension  lumbar_bending  lumbar_rotation  arm_flex_r  arm_add_r  arm_rot_r  elbow_flex_r  pro_sup_r  wrist_flex_r  wrist_dev_r  arm_flex_l  arm_add_l  arm_rot_l  elbow_flex_l  pro_sup_l  wrist_flex_l  wrist_dev_l
10.4160	5.7992	-0.3812	87.8732	-1.6431	5.9668	6.1515	53.5664	-1.5591	0.1208	74.5974	9.0236	-9.2688	0.0000	36.8942	-1.0008	-4.1461	74.3520	-14.2353	-8.6511	-0.0000	-25.3771	3.8645	0.4894	87.0191	-12.0052	50.2677	7.1504	92.5376	-16.5422	-5.4556	89.4993	4.8273	34.4716	2.4320	96.5094	-21.0663	-8.3037	
10.4320	5.8230	-0.4289	87.9652	-1.6442	5.9754	6.1584	52.4419	-1.4964	-0.2637	72.3329	9.0682	-8.9587	-0.0000	38.3594	-0.9401	-3.7275	77.6047	-14.1079	-8.7844	-0.0000	-25.4264	3.8760	0.4812	87.0341	-12.0726	50.3330	6.9812	92.5296	-16.5768	-5.5496	89.5793	4.7474	34.5907	2.4071	96.6643	-21.2287	-8.4954	
10.4490	5.8646	-0.4771	88.0871	-1.6452	5.9842	6.1651	51.1988	-1.4209	-0.6328	69.8942	8.8782	-8.7064	0.0000	39.8716	-0.8684	-3.1666	80.7493	-13.9798	-8.9088	-0.0000	-25.4817	3.8832	0.4651	87.0142	-12.1467	50.3589	6.8524	92.5080	-16.6117	-5.6242	89.5732	4.6750	34.7337	2.4057	96.8150	-21.3831	-8.6528	
10.4660	5.9261	-0.5250	88.2479	-1.6461	5.9932	6.1714	49.8278	-1.3241	-0.9899	67.2644	8.4104	-8.5687	-0.0000	41.4265	-0.7845	-2.3727	83.7661	-13.8955	-9.0238	0.0000	-25.5433	3.8848	0.4503	86.9167	-12.2194	50.2998	6.7958	92.4928	-16.6468	-5.6732	89.4101	4.6263	34.8952	2.4437	96.9522	-21.5372	-8.7625	
10.4820	6.0053	-0.5737	88.4389	-1.6469	6.0023	6.1775	48.3388	-1.2112	-1.3327	64.4615	7.7047	-8.4996	0.0000	43.0288	-0.6709	-1.4399	86.6703	-13.8103	-9.1278	-0.0000	-25.6109	3.8822	0.4277	86.7841	-12.2985	50.2010	6.7795	92.4641	-16.6822	-5.7028	89.1607	4.5836	35.0799	2.5053	97.0854	-21.6833	-8.8378	
10.4990	6.0986	-0.6184	88.6272	-1.6477	6.0114	6.1833	46.7642	-1.0861	-1.6446	61.5167	6.8125	-8.5136	0.0000	44.6684	-0.5029	-0.6568	89.3958	-13.6870	-9.1660	-0.0000	-25.6811	3.8700	0.3824	86.6747	-12.4049	50.1507	6.7814	92.3934	-16.7334	-5.7427	88.9322	4.5075	35.3030	2.5578	97.2263	-21.7990	-8.8949	
10.5160	6.2168	-0.6753	88.8164	-1.6486	6.0209	6.1886	45.1760	-0.9575	-1.9487	58.3249	5.6581	-8.6979	-0.0000	46.3313	-0.2854	-0.1394	91.9326	-13.5302	-9.1095	-0.0000	-25.7593	3.8559	0.2972	86.6065	-12.5590	50.2111	6.7943	92.2429	-16.8059	-5.7974	88.7562	4.3669	35.6020	2.5813	97.3702	-21.8663	-8.9343	
10.5320	6.3492	-0.7284	89.0032	-1.6495	6.0303	6.1937	43.5018	-0.8170	-2.2213	54.9897	4.3180	-8.9622	-0.0000	48.0307	-0.0289	0.2238	94.2943	-13.3342	-8.9863	0.0000	-25.8403	3.8321	0.1893	86.5617	-12.7410	50.3199	6.8260	92.0507	-16.8943	-5.8625	88.6019	4.1928	35.9392	2.5958	97.5219	-21.9035	-8.9558	
10.5490	6.4609	-0.7252	89.1447	-1.6506	6.0392	6.1992	41.5566	-0.6487	-2.3746	51.8577	3.0710	-9.0559	-0.0000	49.7981	0.2676	0.4856	96.4514	-13.0467	-8.8272	-0.0000	-25.9044	3.7698	0.0958	86.5446	-12.9118	50.3786	6.8760	91.9020	-16.9985	-5.9554	88.4825	4.0407	36.2170	2.6280	97.7066	-21.9430	-8.9742	
10.5660	6.5193	-0.6300	89.2086	-1.6523	6.0468	6.2057	39.1187	-0.4346	-2.3207	48.9460	2.0316	-8.7724	0.0000	51.7040	0.5995	0.6195	98.4116	-12.5870	-8.5735	-0.0000	-25.9338	3.6435	0.0329	86.5662	-13.0615	50.3333	6.9506	91.8321	-17.1310	-6.0845	88.4082	3.9275	36.3915	2.7001	97.9577	-22.0302	-9.0188	
10.5820	6.5573	-0.4779	89.2270	-1.6542	6.0538	6.2127	36.4068	-0.2167	-2.1442	46.2373	1.0829	-8.3236	0.0000	53.6803	0.9532	0.6476	100.1672	-12.0369	-8.2841	-0.0000	-25.9463	3.4786	-0.0158	86.6147	-13.2000	50.2381	7.0434	91.8058	-17.2797	-6.2416	88.3684	3.8373	36.5073	2.7903	98.2422	-22.1198	-9.0601	
10.5990	6.6399	-0.3217	89.2532	-1.6563	6.0609	6.2195	33.8979	-0.0577	-2.0209	44.0312	0.1556	-8.0849	0.0000	55.5487	1.3258	0.6966	101.6646	-11.5886	-8.1688	-0.0000	-25.9761	3.3226	-0.0632	86.6605	-13.3175	50.1570	7.1348	91.8018	-17.4072	-6.4188	88.3443	3.7763	36.5997	2.8602	98.4867	-22.1083	-9.0253	
10.6160	6.8071	-0.1646	89.3069	-1.6584	6.0682	6.2259	31.7232	0.0358	-2.0529	42.4229	-0.8228	-8.3076	-0.0000	57.2616	1.7364	0.8326	102.9096	-11.3191	-8.3559	0.0000	-26.0401	3.1822	-0.1129	86.7103	-13.4070	50.1198	7.2203	91.8210	-17.5045	-6.6359	88.3457	3.7474	36.6826	2.8846	98.6680	-21.9364	-8.8824	
